<svg xmlns="http://www.w3.org/2000/svg" width="232.5" height="87.19" viewBox="0 0 232.5 87.19"><title>jayfallon-logo</title><path d="M26.1,34.14a14.23,14.23,0,0,1,4.32.78,1.48,1.48,0,0,1,.9,2.16,1.58,1.58,0,0,1-1.92,1,11.36,11.36,0,0,0-4.74-.66l-3.06,7C18.18,52.26,10.92,60.6,4.44,59,1.38,58.32,0,55.8,0,52.86a12.59,12.59,0,0,1,2.1-6.6c3.42-5.16,8.64-8.88,16.26-11l.12-.06L28,14.52A14.55,14.55,0,0,0,29.58,8.7c0-1.44-.48-2.4-1.32-2.64-1.8-.6-5.82,2.76-8.82,8.52a26.89,26.89,0,0,0-3,12,13.43,13.43,0,0,0,.66,4.5c.54,1.38.3,2.22-.24,2.64a1.14,1.14,0,0,1-1.62-.18,16.82,16.82,0,0,1-2-8.76,27.59,27.59,0,0,1,1.86-9.84C19,4.56,27.48.06,32.34,1.2c2.76.66,3.84,3.3,3.84,6.36a18.47,18.47,0,0,1-1.62,7.26ZM16.56,39.3c-3.84,1.56-8.58,4.5-10.8,8a10.52,10.52,0,0,0-1.92,5.34A2.14,2.14,0,0,0,5,54.84c2,.72,6-3.6,9.24-10.56Z" fill="#162a53"/><path d="M46,46.68a4.45,4.45,0,0,1-4.86-4.62c-1.38,1.86-5,4.5-8,4.5A3.92,3.92,0,0,1,31,46c-1.08-.72-1.5-2.1-1.5-3.72a20.32,20.32,0,0,1,2.4-8.58C35,27.9,40.86,22.26,46,22.32c2.4,0,2.76,1.32,2.76,1.32l.3-.54a.68.68,0,0,1,.6-.42h4.26c.36,0,.3.24.18.6l-6.18,13.8c-1.14,2.52-.9,3.84-.06,4.2,3.36,1.62,7.14-5.28,8.4-7.8.24-.66,1.26-.36,1.86.18a2.29,2.29,0,0,1,.54,2.46C56.82,40.38,52.74,46.44,46,46.68Zm.78-19.26c.6-1.38.12-2.22-.9-2.22-2.1,0-5.76,2.22-8.34,7.5a14.39,14.39,0,0,0-1.68,5.7c0,1.2.42,2,1.2,2.22A4.45,4.45,0,0,0,42,37.86Z" fill="#162a53"/><path d="M78.06,40.74c-2.76,3.78-7.44,6-13,7.38l-3.6,7.68a10.36,10.36,0,0,1-10.86,5.82,4.29,4.29,0,0,1-4-4.32,7.17,7.17,0,0,1,.9-3.24c2.16-4.2,10.68-6.84,13.08-8,.12-.24.54-1.14,1.14-2.46a8.86,8.86,0,0,1-5.28,2.16c-2.22,0-4.08-1.74-3.72-5,.18-2.16,4.86-9.3,6.24-12.84.42-1.2.54-2.1.06-2.46a2,2,0,0,1-.24-2.58,3.65,3.65,0,0,1,3.3-1.68c2.52.3,2.76,2.4,2.34,4.38C63.72,29.16,59.28,37,59,38.82A1.72,1.72,0,0,0,60.66,41c.9,0,2-.54,3.12-2C66.84,32.22,71,23.1,71,23.1a.68.68,0,0,1,.6-.42h4.26c.36,0,.36.24.18.6L67.2,43.62c1.74-.84,5.46-1.62,8.1-5.28a37.07,37.07,0,0,0,2.88-4.86c.3-.66,1.26-.36,1.86.18a2.37,2.37,0,0,1,.6,2.52A20.81,20.81,0,0,1,78.06,40.74ZM58.68,50.28c-3.3,1-7.68,2.88-8.34,4.74-.84,2.28,1.26,2.82,3,2.34a5.29,5.29,0,0,0,3.48-3.12Z" fill="#162a53"/><path d="M142.85,2.22A24.39,24.39,0,0,1,136,8a17.23,17.23,0,0,1-6.48,1.86,9.89,9.89,0,0,0-3.6,2.52c-2,2.1-4.74,7.38-7.2,12.9a.65.65,0,0,1,.3.06A11.8,11.8,0,0,0,126.6,23a.93.93,0,0,1,1.08-.12c.24.18.36.54.18,1.08a19.12,19.12,0,0,1-3.78,7.14c-2.76,3.48-5.22,4.68-7.44,5.22a.41.41,0,0,1-.54-.3c-.06-.24.18-.66.9-1.08a7.46,7.46,0,0,0,3.3-3.72.65.65,0,0,0,.06-.3c-.06-.12-.18-.12-.36-.06a4.11,4.11,0,0,1-3,.42,4.78,4.78,0,0,1-.9-.18l-2.88,6.66a14.23,14.23,0,0,1-12.66,8.94,8.18,8.18,0,0,1-3.36-.66,5.08,5.08,0,0,1-2.82-4.86,7.39,7.39,0,0,1,.3-2.22,1.18,1.18,0,0,1,.84-.84c.36-.06.66.12.66.6a2.77,2.77,0,0,0,2.34,2.7c2.28.42,6-1.56,9-8l2.82-6.06a6,6,0,0,0-1.32-.72,5.7,5.7,0,0,0-5.22,1.2c-.36.36-.72.42-1,.24s-.24-.6.06-1.14c.6-1.08,2.22-4.86,6.54-4.86a8.32,8.32,0,0,1,3.24.42c2.52-5.28,5.16-8.64,7-10.2A12,12,0,0,1,123,10.14a.4.4,0,0,0,.24-.3c-.06-.12-.18-.24-.54-.3a12.93,12.93,0,0,1-2.34-.42l-8-1.68a15,15,0,0,0-3.06-.36c-2.94,0-4.56,1.2-5.34,2.88a5,5,0,0,0-.42,2,3.45,3.45,0,0,0,.42,1.8.65.65,0,0,1-.06.9.61.61,0,0,1-.84.24,5.67,5.67,0,0,1-2.16-4.68,9.81,9.81,0,0,1,.3-2.16A11.14,11.14,0,0,1,112.14,0a14.13,14.13,0,0,1,3.06.36l8.76,2a28,28,0,0,0,6.18.72,27.89,27.89,0,0,0,8.51-1.32A15.5,15.5,0,0,0,142.37.36c.6-.42,1.2-.48,1.2.42C143.57,1.32,143.21,1.68,142.85,2.22Z" fill="#162a53"/><path d="M139.92,46.68a4.45,4.45,0,0,1-4.86-4.62c-1.38,1.86-5,4.5-8,4.5a3.92,3.92,0,0,1-2.16-.6c-1.08-.72-1.5-2.1-1.5-3.72a20.32,20.32,0,0,1,2.4-8.58c3.06-5.76,8.94-11.4,14-11.34,2.4,0,2.76,1.32,2.76,1.32l.3-.54a.68.68,0,0,1,.6-.42h4.26c.36,0,.3.24.18.6l-6.18,13.8c-1.14,2.52-.9,3.84-.06,4.2,3.36,1.62,7.14-5.28,8.4-7.8.24-.66,1.26-.36,1.86.18a2.29,2.29,0,0,1,.54,2.46C150.72,40.38,146.64,46.44,139.92,46.68Zm.78-19.26c.6-1.38.12-2.22-.9-2.22-2.1,0-5.76,2.22-8.34,7.5a14.39,14.39,0,0,0-1.68,5.7c0,1.2.42,2,1.2,2.22a4.45,4.45,0,0,0,4.92-2.76Z" fill="#162a53"/><path d="M175.92,3.3c0,4.14-3.3,11.52-6.42,16.32-3.72,5.64-6.48,8.46-9.78,11-1,.72-1.44.42-1.62-.24a2.69,2.69,0,0,1,.6-2.4c2.52-1.86,4.92-4,8.4-9.24,4.2-6.24,6.12-13.08,4.5-13.44-1.32-.3-6.06,5.82-10.92,15.6-3.24,6.6-6.48,14.7-6.48,19,0,1.5.36,2.52,1.26,2.88,1.56.66,3.6,0,6.36-3.18a18.87,18.87,0,0,0,3.06-4.56c.36-.78,1.26-.6,1.92,0a1.75,1.75,0,0,1,.48,2.22,14.36,14.36,0,0,1-2.7,4.8,14.11,14.11,0,0,1-10.14,5,7.62,7.62,0,0,1-3.12-.6c-1.92-.78-2.94-2.94-2.94-6.18,0-4.44,1.92-11,6.18-19C161.82,7.74,171-.9,174.48.36,175.5.72,175.92,1.8,175.92,3.3Z" fill="#162a53"/><path d="M191.64,3.3c0,4.14-3.3,11.52-6.42,16.32-3.72,5.64-6.48,8.46-9.78,11-1,.72-1.44.42-1.62-.24a2.69,2.69,0,0,1,.6-2.4c2.52-1.86,4.92-4,8.39-9.24,4.21-6.24,6.13-13.08,4.5-13.44-1.31-.3-6.05,5.82-10.91,15.6-3.24,6.6-6.48,14.7-6.48,19,0,1.5.36,2.52,1.26,2.88,1.56.66,3.6,0,6.36-3.18a18.87,18.87,0,0,0,3.06-4.56c.36-.78,1.25-.6,1.92,0a1.77,1.77,0,0,1,.48,2.22,14.36,14.36,0,0,1-2.7,4.8,14.11,14.11,0,0,1-10.14,5,7.62,7.62,0,0,1-3.12-.6c-1.92-.78-2.94-2.94-2.94-6.18,0-4.44,1.92-11,6.18-19C177.54,7.74,186.72-.9,190.19.36,191.22.72,191.64,1.8,191.64,3.3Z" fill="#162a53"/><path d="M204.23,42.18a7.33,7.33,0,0,1-4.86,1.74,9.09,9.09,0,0,1-5.16-1.62c-3.18,2.94-6.84,4.86-9.9,4.86-3.47,0-5.33-2.34-5.33-5.88a15.49,15.49,0,0,1,1.74-6.66c3.3-6.9,10.26-12.54,15.59-12.54,3.42,0,5.34,2.4,5.34,5.94a15.92,15.92,0,0,1-1.74,6.6,27.46,27.46,0,0,1-2.82,4.56,4.35,4.35,0,0,0,3,.84c2.34-.36,4.14-3.66,5.4-6.36a.91.91,0,0,1,1.26-.48,2.42,2.42,0,0,1,1.44,2.46A17.65,17.65,0,0,1,204.23,42.18ZM186.65,34.5a11.14,11.14,0,0,0-1.25,4.62c0,1.68.71,2.76,2.09,2.76s2.82-.9,4.32-2.34a9.73,9.73,0,0,1-1.2-5.64,16.74,16.74,0,0,1,1.74-6.12A17,17,0,0,0,186.65,34.5Zm7.56-.66a6.49,6.49,0,0,0,.42,2.1c.24-.48.54-1,.78-1.44a11.65,11.65,0,0,0,1.26-4.68,3.2,3.2,0,0,0-.77-2.28A12.81,12.81,0,0,0,194.21,33.84Z" fill="#162a53"/><path d="M219.41,46.62a8.31,8.31,0,0,1-1.8-.18,4.73,4.73,0,0,1-3.66-4.8,8.76,8.76,0,0,1,1-3.72l2.58-5.34c1.32-2.64,1.56-5.22.54-5.58s-2.7.84-4.13,2.76A27.35,27.35,0,0,0,210.84,35l-5,10.74c-.17.42-.29.54-.77.54h-4.74c-.48,0-.42-.3-.3-.54l10.37-22.5c.12-.36.36-.54.9-.54h3.42c.25,0,.72.3.54.72L214.19,26c1.44-1.68,4-3.54,6.78-3.42,2.64.06,4.26,2.16,3.84,5.34s-4.32,9.24-4.32,12.06c0,.72.24,1.26.9,1.44,3.06,1,6.06-3.48,8.28-8.1.24-.42,1.14-.18,1.8.42a2.2,2.2,0,0,1,.6,2.52C228.59,44.1,223.25,46.62,219.41,46.62Z" fill="#162a53"/><path d="M9.31,70.57h1.61V78c0,3.11-1.37,5-4.69,5s-4.45-1.87-4.45-5V70.57H3.41v7.72c0,2.22.82,3.24,2.84,3.24s3.06-1,3.06-3.24Z" fill="#162a53"/><path d="M20.27,82.77l-2.92-4.92h0l-2.89,4.92H12.64l3.78-6.34L12.9,70.57h1.85L17.42,75h0l2.64-4.47h1.73L18.3,76.42l3.81,6.35Z" fill="#162a53"/><path d="M27.77,82.77V70.57h7.36V72H29.4v3.75h4.12v1.4H29.4v4.2h6v1.42Z" fill="#162a53"/><path d="M42.58,82.77v-6c0-1.19-.44-1.72-1.46-1.72a3.38,3.38,0,0,0-2.5,1.36v6.37H37.17V74h1.38v1.22a4.08,4.08,0,0,1,3-1.42,2.21,2.21,0,0,1,2,.91A3.42,3.42,0,0,1,44,76.77v6Z" fill="#162a53"/><path d="M49.38,79.8A4.8,4.8,0,0,1,48,79.6c-.36.17-.66.42-.66.71,0,1.46,6.32-.53,6.32,3,0,1.81-1.84,2.56-4.2,2.56s-3.84-.66-3.84-2.12A1.8,1.8,0,0,1,47,82v0a1.2,1.2,0,0,1-1.06-1.22,2,2,0,0,1,1.18-1.6A2.8,2.8,0,0,1,46,76.77c0-1.73,1.29-3,3.38-3a3.7,3.7,0,0,1,2.33.73,2.48,2.48,0,0,1,1.85-.89v1.33a2.41,2.41,0,0,0-1.21.3,2.94,2.94,0,0,1,.41,1.53C52.76,78.63,51.49,79.8,49.38,79.8Zm-.56,2.45c-1,.13-1.89.54-1.89,1.34s1,1.24,2.55,1.24,2.74-.41,2.74-1.31C52.22,82.45,51,82.3,48.82,82.25Zm.56-7.36a1.84,1.84,0,0,0-2,2,2,2,0,0,0,4.08,0A1.84,1.84,0,0,0,49.38,74.89Z" fill="#162a53"/><path d="M55.17,72.27V70.52h1.6v1.75Zm.07,10.5V74h1.45v8.8Z" fill="#162a53"/><path d="M64.71,82.77v-6c0-1.19-.44-1.72-1.46-1.72a3.39,3.39,0,0,0-2.5,1.36v6.37H59.31V74h1.37v1.22a4.08,4.08,0,0,1,3-1.42,2.21,2.21,0,0,1,2,.91,3.41,3.41,0,0,1,.48,2.09v6Z" fill="#162a53"/><path d="M71.78,83c-2.36,0-3.72-1.79-3.72-4.61s1.55-4.6,3.74-4.6c2.38,0,3.64,1.7,3.64,4.28,0,.14,0,.31,0,.53H69.49c.08,2,.75,3.16,2.4,3.16a2.54,2.54,0,0,0,2.41-1.57l1.1.62A3.85,3.85,0,0,1,71.78,83Zm-2.26-5.47H74c0-1.55-.82-2.57-2.21-2.57S69.69,76.09,69.52,77.51Z" fill="#162a53"/><path d="M80.59,83c-2.36,0-3.72-1.79-3.72-4.61s1.54-4.6,3.74-4.6c2.38,0,3.63,1.7,3.63,4.28,0,.14,0,.31,0,.53H78.29c.09,2,.75,3.16,2.4,3.16a2.55,2.55,0,0,0,2.42-1.57l1.1.62A3.85,3.85,0,0,1,80.59,83Zm-2.26-5.47h4.49c0-1.55-.82-2.57-2.21-2.57S78.5,76.09,78.33,77.51Z" fill="#162a53"/><path d="M86.28,82.77V74h1.38v1.67a3,3,0,0,1,2.69-1.87h.27v1.43a2.21,2.21,0,0,0-.32,0,3,3,0,0,0-2.57,2.13v5.45Z" fill="#162a53"/><path d="M92.1,72.27V70.52h1.6v1.75Zm.07,10.5V74h1.44v8.8Z" fill="#162a53"/><path d="M101.63,82.77v-6c0-1.19-.44-1.72-1.46-1.72a3.41,3.41,0,0,0-2.5,1.36v6.37H96.23V74h1.38v1.22a4.06,4.06,0,0,1,3-1.42,2.2,2.2,0,0,1,2,.91,3.41,3.41,0,0,1,.48,2.09v6Z" fill="#162a53"/><path d="M108.43,79.8a4.77,4.77,0,0,1-1.42-.2c-.36.17-.67.42-.67.71,0,1.46,6.33-.53,6.33,3,0,1.81-1.84,2.56-4.2,2.56s-3.84-.66-3.84-2.12A1.8,1.8,0,0,1,106.05,82v0a1.19,1.19,0,0,1-1-1.22,2.05,2.05,0,0,1,1.17-1.6,2.8,2.8,0,0,1-1.12-2.4c0-1.73,1.29-3,3.38-3a3.66,3.66,0,0,1,2.33.73,2.5,2.5,0,0,1,1.86-.89v1.33a2.41,2.41,0,0,0-1.21.3,2.94,2.94,0,0,1,.41,1.53C111.82,78.63,110.54,79.8,108.43,79.8Zm-.56,2.45c-1,.13-1.88.54-1.88,1.34s1,1.24,2.55,1.24,2.73-.41,2.73-1.31C111.27,82.45,110,82.3,107.87,82.25Zm.56-7.36a1.84,1.84,0,0,0-2,2,2,2,0,0,0,4.07,0A1.84,1.84,0,0,0,108.43,74.89Z" fill="#162a53"/><path d="M156.63,81.79v-.61a3.87,3.87,0,0,1,1.66-2.76c1.57-1.35,3.58-2.12,3.58-4a1.66,1.66,0,0,0-1.85-1.8c-1.1,0-1.86.64-2.12,2l-1.13-.23a3.18,3.18,0,0,1,3.31-2.89,2.72,2.72,0,0,1,3,2.87c0,2.37-2.66,3.52-4,4.72-.61.54-1.07,1-1.08,1.52h5.11v1.12Z" fill="#162a53"/><path d="M164.68,76.81c0-3.33,1.21-5.25,3.38-5.25s3.38,1.92,3.38,5.25S170.22,82,168.06,82,164.68,80.06,164.68,76.81Zm5.48,0c0-2.7-.74-4.18-2.1-4.18s-2.1,1.48-2.1,4.18.74,4.08,2.1,4.08S170.16,79.46,170.16,76.81Z" fill="#162a53"/><path d="M173.93,81.79V80.72h1.73V73.07l-2,.28V72.5l2.45-.77h.85v9h1.68v1.07Z" fill="#162a53"/><path d="M186.28,76.87a3.34,3.34,0,0,1-2.64,1.22,2.91,2.91,0,0,1-3.08-3.17,3.22,3.22,0,0,1,3.4-3.36c2.3,0,3.6,1.68,3.6,4.69,0,2.75-1.07,5.7-4,5.7a3.94,3.94,0,0,1-2.72-1l.7-1a2.73,2.73,0,0,0,2,.84c2,0,2.76-2,2.8-4ZM184,72.63a2.06,2.06,0,0,0-2.15,2.25A1.94,1.94,0,0,0,183.92,77a2.5,2.5,0,0,0,2.34-1.73A2.38,2.38,0,0,0,184,72.63Z" fill="#162a53"/><path d="M192.66,81.79V71.73h6.06v1.18H194V76h3.39v1.15H194v3.46H199v1.18Z" fill="#162a53"/><path d="M205.23,81.79l-.19-.86a3.09,3.09,0,0,1-2.33,1c-1.75,0-2.82-1.49-2.82-3.72s1.2-3.81,3-3.81a2.67,2.67,0,0,1,2.07.92V71.73h1.19V81.79Zm-.31-5.26a2.27,2.27,0,0,0-1.87-1.09c-1.22,0-2,1.08-2,2.8s.74,2.68,1.93,2.68a2.32,2.32,0,0,0,1.89-1.09Z" fill="#162a53"/><path d="M208.21,73.13V71.69h1.32v1.44Zm.06,8.66V74.53h1.19v7.26Z" fill="#162a53"/><path d="M214.64,81.79a5.42,5.42,0,0,1-1.11.11c-1.19,0-1.64-.46-1.64-1.88V75.51h-1.08v-1h1.08V72.14h1.18v2.39h1.57v1h-1.57V80c0,.61.22.89.76.89a3.51,3.51,0,0,0,.81-.1Z" fill="#162a53"/><path d="M216.12,73.13V71.69h1.32v1.44Zm.06,8.66V74.53h1.19v7.26Z" fill="#162a53"/><path d="M219,78.19c0-2.41,1.17-3.83,3.09-3.83s3.08,1.42,3.08,3.83S224,82,222.11,82,219,80.51,219,78.19Zm5,0c0-1.67-.6-2.83-1.89-2.83s-1.89,1.16-1.89,2.83.62,2.77,1.89,2.77S224,79.85,224,78.19Z" fill="#162a53"/><path d="M231.31,81.79v-5c0-1-.36-1.42-1.2-1.42a2.82,2.82,0,0,0-2.06,1.12v5.26h-1.19V74.53H228v1a3.38,3.38,0,0,1,2.47-1.18,1.8,1.8,0,0,1,1.65.76,2.78,2.78,0,0,1,.39,1.72v5Z" fill="#162a53"/><polygon points="134.86 66.07 138.14 72.72 145.48 73.79 140.17 78.97 141.42 86.28 134.86 82.83 128.29 86.28 129.54 78.97 124.23 73.79 131.57 72.72 134.86 66.07" fill="#fff" stroke="#162a53" stroke-miterlimit="10"/></svg>